<svg xmlns="http://www.w3.org/2000/svg" viewBox="0 0 400 400"><defs><style>.cls-1,.cls-2{fill:#242424;}.cls-1{opacity:0.3;}.cls-2{opacity:0.33;}</style></defs><title>Artboard 1 copy 12</title><g id="Layer_13" data-name="Layer 13"><circle class="cls-1" cx="73.68" cy="242.11" r="21.05"/><circle class="cls-1" cx="73.68" cy="326.32" r="21.05"/><circle class="cls-1" cx="73.68" cy="157.89" r="21.05"/><circle class="cls-1" cx="10.53" cy="157.89" r="10.53"/><circle class="cls-1" cx="73.68" cy="73.68" r="21.05"/><circle class="cls-1" cx="389.47" cy="157.89" r="10.53"/><circle class="cls-1" cx="242.11" cy="73.68" r="21.05"/><circle class="cls-1" cx="242.11" cy="10.53" r="10.53"/><circle class="cls-1" cx="10.53" cy="242.11" r="10.53"/><circle class="cls-1" cx="157.89" cy="389.47" r="10.53"/><circle class="cls-1" cx="157.89" cy="10.53" r="10.53"/><circle class="cls-1" cx="157.89" cy="73.68" r="21.05"/><circle class="cls-1" cx="157.89" cy="242.11" r="31.58"/><circle class="cls-1" cx="326.32" cy="242.11" r="21.05"/><circle class="cls-1" cx="326.32" cy="326.32" r="21.05"/><circle class="cls-1" cx="326.32" cy="157.89" r="21.05"/><circle class="cls-1" cx="326.32" cy="73.68" r="21.05"/><circle class="cls-1" cx="389.47" cy="242.11" r="10.53"/><circle class="cls-1" cx="242.11" cy="326.32" r="21.05"/><circle class="cls-1" cx="242.11" cy="389.47" r="10.53"/><circle class="cls-1" cx="157.89" cy="157.89" r="31.58"/><circle class="cls-1" cx="157.89" cy="326.32" r="21.05"/><circle class="cls-1" cx="242.11" cy="242.11" r="31.58"/><circle class="cls-1" cx="242.11" cy="157.89" r="31.58"/><circle class="cls-1" cx="73.68" cy="242.11" r="21.05"/><circle class="cls-1" cx="73.68" cy="326.32" r="21.05"/><circle class="cls-1" cx="73.68" cy="157.89" r="21.05"/><circle class="cls-1" cx="10.53" cy="157.89" r="10.53"/><circle class="cls-1" cx="73.68" cy="73.68" r="21.05"/><circle class="cls-1" cx="242.11" cy="73.68" r="21.05"/><circle class="cls-1" cx="242.11" cy="10.53" r="10.53"/><circle class="cls-1" cx="10.53" cy="242.11" r="10.53"/><circle class="cls-1" cx="157.89" cy="389.47" r="10.53"/><circle class="cls-1" cx="157.89" cy="10.53" r="10.53"/><circle class="cls-1" cx="157.89" cy="73.68" r="21.05"/><circle class="cls-1" cx="157.89" cy="242.11" r="31.58"/><circle class="cls-1" cx="242.11" cy="326.32" r="21.05"/><circle class="cls-1" cx="242.11" cy="389.47" r="10.53"/><circle class="cls-1" cx="157.89" cy="157.89" r="31.58"/><circle class="cls-1" cx="157.89" cy="326.32" r="21.05"/><circle class="cls-1" cx="242.11" cy="242.11" r="31.58"/><circle class="cls-1" cx="242.11" cy="157.89" r="31.58"/><circle class="cls-2" cx="73.68" cy="242.11" r="21.05"/><circle class="cls-2" cx="73.68" cy="326.32" r="21.05"/><circle class="cls-2" cx="73.68" cy="157.89" r="21.05"/><circle class="cls-2" cx="10.53" cy="157.89" r="10.53"/><circle class="cls-2" cx="73.68" cy="73.68" r="21.05"/><circle class="cls-2" cx="10.53" cy="242.11" r="10.53"/></g></svg>