<svg id="Layer_1" data-name="Layer 1" xmlns="http://www.w3.org/2000/svg" xmlns:xlink="http://www.w3.org/1999/xlink" viewBox="0 0 1000 1000"><defs><style>.cls-1{fill:none;}.cls-2{fill:url(#objectively-gradient);}.cls-3{opacity:0.2;fill:url(#linear-gradient);}</style><linearGradient id="objectively-gradient" x1="781.81" y1="217.76" x2="217.84" y2="781.74" gradientUnits="userSpaceOnUse"><stop offset="0" stop-color="#3ad6d2"/><stop offset="0.38" stop-color="#adb5f5"/><stop offset="0.49" stop-color="#b4aeec"/><stop offset="0.66" stop-color="#c79cd4"/><stop offset="0.88" stop-color="#e77eac"/><stop offset="1" stop-color="#fa6c94"/></linearGradient><linearGradient id="linear-gradient" x1="326.48" y1="-20.49" x2="1020.06" y2="673.09" gradientUnits="userSpaceOnUse"><stop offset="0" stop-color="#3ad6d2" stop-opacity="0"/><stop offset="0.05" stop-color="#3bd6d2" stop-opacity="0.04"/><stop offset="0.13" stop-color="#3ed6d2" stop-opacity="0.15"/><stop offset="0.24" stop-color="#43d5d3" stop-opacity="0.33"/><stop offset="0.36" stop-color="#49d4d4" stop-opacity="0.59"/><stop offset="0.49" stop-color="#51d3d5" stop-opacity="0.9"/><stop offset="0.53" stop-color="#54d3d5"/><stop offset="0.67" stop-color="#4cd4d4" stop-opacity="0.68"/><stop offset="0.83" stop-color="#42d5d3" stop-opacity="0.32"/><stop offset="0.94" stop-color="#3cd6d2" stop-opacity="0.09"/><stop offset="1" stop-color="#3ad6d2" stop-opacity="0"/></linearGradient></defs><title>Artboard 32</title><circle class="cls-1" cx="500" cy="500" r="496.48"/><path class="cls-2" d="M499.82,101C279.58,101,101,279.5,101,499.75S279.58,898.54,499.82,898.54,898.61,720,898.61,499.75,720.07,101,499.82,101Zm0,705.52c-169.4,0-306.72-137.33-306.72-306.73S330.42,193,499.82,193,806.55,330.35,806.55,499.75,669.22,806.48,499.82,806.48Z"/><path class="cls-3" d="M283,282.76c119.79-119.68,313.92-119.65,433.67.1s119.78,313.88.11,433.67l129.9,129.9c191.42-191.53,191.38-502-.11-693.47s-501.94-191.53-693.47-.11Z"/></svg>